<svg width="60" height="16" viewBox="0 0 60 16" fill="none" xmlns="http://www.w3.org/2000/svg">
<path d="M0.66 15V1.04H2.82V15H0.66ZM10.76 15V8.7H4.68V6.66H10.76V1.04H12.9V15H10.76ZM15.313 8.34H17.493C17.613 11.28 19.453 13.18 22.433 13.18C25.533 13.18 27.473 11.18 27.473 8.02C27.473 4.96 25.653 3 22.733 2.88V0.84C26.833 0.96 29.613 3.72 29.613 8.02C29.613 12.54 26.813 15.2 22.433 15.2C18.273 15.2 15.453 12.5 15.313 8.34ZM38.5077 13.1L32.2277 1.04H34.2877L39.4077 10.68L44.5677 1.04H46.8677V15H44.7277L44.6677 4.82L40.0477 13.1H38.5077ZM32.0077 15V5.7L34.0677 9.66V15H32.0077ZM49.6992 3.14V1.04H59.6592V3.14H49.6992ZM49.6992 9V7.04H59.6592V9H49.6992ZM49.6992 15V12.88H59.6592V15H49.6992Z" fill="white"/>
</svg>
